<svg xmlns="http://www.w3.org/2000/svg" viewBox="0 0 14 14" width="14" height="14">
  <!-- Bear (Clyde) — brown ghost, bulkier -->
  <!-- Round ears -->
  <circle cx="3" cy="2" r="1.8" fill="#8b6040"/>
  <circle cx="11" cy="2" r="1.8" fill="#8b6040"/>
  <circle cx="3" cy="2" r="1" fill="#6b4020"/>
  <circle cx="11" cy="2" r="1" fill="#6b4020"/>
  <!-- Body — wider -->
  <path d="M2 4 Q2 1 7 1 Q12 1 12 4 L12 10 L11 9 L10 10 L9 9 L8 10 L7 9 L6 10 L5 9 L4 10 L3 9 L2 10 Z" fill="#8b6040" stroke="#5a3520" stroke-width="0.4"/>
  <!-- Eyes -->
  <rect x="4" y="4" width="2.5" height="2.5" rx="0.5" fill="#fff"/>
  <rect x="7.5" y="4" width="2.5" height="2.5" rx="0.5" fill="#fff"/>
  <circle cx="5.8" cy="5.5" r="0.8" fill="#1a1a2e"/>
  <circle cx="9.3" cy="5.5" r="0.8" fill="#1a1a2e"/>
  <!-- Snout -->
  <ellipse cx="7" cy="7.5" rx="1.5" ry="1" fill="#a07050"/>
</svg>
